<?xml version="1.0" standalone="no"?>
<!DOCTYPE svg PUBLIC "-//W3C//DTD SVG 20010904//EN"
 "http://www.w3.org/TR/2001/REC-SVG-20010904/DTD/svg10.dtd">
<svg version="1.0" xmlns="http://www.w3.org/2000/svg"
 width="16.000000pt" height="16.000000pt" viewBox="0 0 16.000000 16.000000"
 preserveAspectRatio="xMidYMid meet">
<metadata>
Created by potrace 1.11, written by Peter Selinger 2001-2013
</metadata>
<g transform="translate(0.000000,16.000000) scale(0.006154,-0.006154)"
fill="#000000" stroke="none">
<path d="M0 1300 l0 -1300 1300 0 1300 0 0 1300 0 1300 -1300 0 -1300 0 0
-1300z m2246 901 l102 -6 -67 -74 c-36 -41 -213 -223 -392 -405 -180 -182
-334 -345 -343 -363 -20 -41 -20 -75 0 -116 9 -18 134 -151 278 -297 143 -146
280 -289 304 -318 l44 -53 -33 -37 c-18 -20 -49 -52 -70 -70 l-39 -33 -52 43
c-29 24 -176 165 -328 314 -297 294 -310 303 -388 282 -29 -8 -92 -64 -307
-277 -148 -147 -296 -289 -328 -316 l-59 -48 -70 70 -71 71 44 53 c24 30 166
177 315 329 160 162 276 289 284 308 29 73 18 86 -344 454 -182 185 -362 370
-399 412 l-69 75 94 4 c173 6 1792 5 1894 -2z"/>
<path d="M1000 1981 c-80 -11 -100 -25 -100 -65 0 -25 11 -48 39 -83 58 -72
272 -278 308 -297 74 -37 112 -19 267 133 157 153 196 203 196 247 0 31 -5 37
-37 51 -32 14 -85 17 -328 19 -159 1 -315 -1 -345 -5z"/>
</g>
</svg>
