<svg id="Layer_1" data-name="Layer 1" xmlns="http://www.w3.org/2000/svg" viewBox="0 0 909.72 731.58"><title>lambo_cool_angle_02</title><path d="M1156.61,463.35l.25-.09,15.4,62.7c1.08-28-6.37-54.32-15.21-80.14-1.23-3.59-9.49-5.73-14.84-6.76m42,154c-10.58-48.19-21.17-95.21-31-142.36-2-9.42-6.66-12-15.76-13-36.73-3.95-73.37-8.73-111.54-13.39,2.58,13.85,5,27.75,7.77,41.59,7,35.35,14.29,70.66,21.22,106,1,5,2,8,8.25,8.68,37.8,3.87,75.56,8.23,113.33,12.39C1178.08,593.22,1179.83,593.06,1184.16,593.06Zm-24.5-99.66.11,2.29-118.6-12.91.28-2.41ZM1049.79,520l-.57-2.23,117.63,12.39-.27,2.46Zm2.6,19.89.28-2.35,117.19,13-.27,2.26Zm-6.23-38.5.38-2.14L1162,511.68l-.24,2.06Zm-7.49-36.2.23-1.91,115.94,12.81-.21,1.75Zm134.75,105.1-.72,2.24-116.27-13.09.24-2Zm-136.69-122,.14-1.85,112,12.48-.22,1.79ZM518,785c-47-7.39-120.55-20.35-167.6-27.34-11.27-1.67-18.32-7.66-22.68-17.85-4.66-10.89-9.71-21.62-15.44-34.29,22.91-3,43.66-6.24,64.53-8.21,35.76-3.37,71.6-5.78,107.36-9.11,2.84-.26,7.15-4.24,7.67-7.06,8.26-44.87,16-89.82,23.88-134.76l2.81.47-25.22,140c8,2.62,11.75.29,13.37-6q27.7-107.54,55.39-215.09a9.17,9.17,0,0,0-.23-2.55H541.61l-.16-2.35,21.7-1,73.5-258.47,55.82,4.66c.7.06,1.41.08,2.11.08,49.73,0,99.48.45,149.2-.34,17.27-.28,34.49-3.7,53-5.82l-1.07,11.67,4.66-5.17a52.51,52.51,0,0,0,.75,6.64q13.63,53.8,27.38,107.56,12.48,48.75,25.08,97.46c3,11.61-1.42,20.28-10.58,28.37L879.65,236.87l-3,7.38-6.19-16-1.29.31.91,11.48c-61.08,0-121.61-.18-182.14.29-5.83,0-11.63,4.07-17.44,6.25l.32-.29c-12.37,9.27-14.92,23.75-19.18,37.11C630,351.09,608.72,418.9,586.68,488.64H689.86v2.69H586.79L526.28,699.79a104.51,104.51,0,0,0,10.87,1.07q227.48-.27,455-1c8.6,0,17.32-4.14,25.74-7,5.84-2,11.28-5.19,18.36-8.55-2.1-13.13-4.24-27.53-6.73-41.88-6.82-39.27-13.92-78.49-20.65-117.77-3.89-22.71-7.27-45.51-10.89-68.27l.72-.62c4.82,25.63,9.83,51.22,14.41,76.89,6.19,34.72,12.07,69.49,18.05,104.24,2.84,16.5,5.59,33,8.32,49.14,41.38,3.58,83,7.09,124.68,10.85,14,1.27,28,3.06,41.94,4.83,10.08,1.28,13-.75,11.44-10.26-12.44-74.53-23.27-149.4-38.38-223.39-10.82-53-31.14-103.47-54.76-154.08,1.15,19.24,13.47,36.12,3.85,57.23.82-38.72-14.06-71.46-21.16-105.8-3.14-15.18-11-24.84-27.33-26.9-3.47-.44-7.9-3.88-9.46-7.11-18-37.22-35.62-74.64-53.15-112.1-1.37-2.93-1.35-6.5-2-9.78l2.74-.62c5.55,12.6,11.75,25,16.49,37.85,5.12,13.91,15.53,33.82,22.63,51.21,20,49,30,26,48,54,11.3,30.42,24,62,38,94,16,38,23,65,28,82,2,6,7,29,10,42,6,30,14.26,75.59,16,86,6,36,9,54,15,87,2,12,3.64,6.08,10,59-16,61-28,50-51,61-42,9-126,16-160,21M549.13,706.93v1.77H979.47q0-.88,0-1.77Zm204.18,56v-3.64c-65.19,0-130.39-.11-195.58.19-5.71,0-11.45,2.58-17.11,4.2-7.91,2.27-15.85,7-23.61,6.74-21.7-.86-43.36-3.43-65-6-33.44-4-66.82-8.51-100.22-12.8a53.3,53.3,0,0,0,14.89,4.62c42.44,5.68,84.84,11.63,127.38,16.44,14.28,1.62,29.25,5.81,43.18-2.94,10.19-6.4,21.62-7,33.41-6.93C631.55,763.07,692.43,762.93,753.31,762.93ZM477,717.06c2,9.27,3.7,18,5.83,26.61.27,1.09,2.64,2.34,4,2.35,17,.16,34,.1,51.85.1l-4.76-29.07Zm570.38,26.86.93.08,5.26-26.81H995.61l-4,28.33L994,746l3.59-15.39,1.93,4.74h47.83ZM1011,772.24q0,.74,0,1.48a36.36,36.36,0,0,0,5.7.31c30.74-3,61.54-5.52,92.17-9.38,24-3,47.72-7.63,71.51-11.87,3.54-.63,6.76-3.1,7.38-3.39ZM591.09,444.63l2.85,1.35,53-169.32-2.31-.73ZM980,762.41v-1.78H773.1v1.78Zm206.68-43.67.06-4.21h-56.63L1123,741.27a16.9,16.9,0,0,0,5.56-10.2c1.76-10.38,6.62-14.11,17.89-12.71C1159.67,720,1173.27,718.74,1186.72,718.74Zm-842.88-3.66c13.83,5.6,51.83,4.89,56.44,0Zm67,1.18,0,1.89H461.1v-1.89ZM1171,763,353.25,595.84c10.36-48.19,20.72-95.21,30.4-142.36,1.93-9.42,6.52-12,15.43-13,36-3.95,71.83-8.73,109.2-13.39-2.53,13.85-4.92,27.75-7.61,41.59-6.88,35.35-14,70.66-20.77,106-1,5-2,8-8.08,8.68-37,3.87-74,8.23-110.95,12.39C359.19,596,357.49,595.84,353.25,595.84Zm24-100.66-.11,2.29,116.11-12.91-.27-2.41ZM484.8,521.77l.56-2.23L370.19,531.93l.27,2.46Zm-2.55,19.89L482,539.3l-114.73,13,.27,2.26Zm6.1-38.5L488,501,374.9,513.46l.24,2.06Zm7.33-36.2-.22-1.91L382,477.86l.2,1.75ZM363.77,572l.7,2.24L478.3,561.2l-.23-2ZM497.58,450l-.13-1.85L387.8,460.63l.22,1.79Zm420-15.11c-4.61-18.44-5.72-19.21-25.17-19.2L647,415.79c-25.49,0-25.49,0-32,24.35-3.52,13.22-1.84,15.55,11.67,16.05,2.11.08,4.23.05,6.35,0q132.25-.43,264.5-.92c7.3,0,14.6-.66,23.83-1.11C919.85,446.45,919,440.6,917.59,434.9ZM908.83,67.47c6.53-.81,13-2,19.6-2.36,12.48-.76,25-1.39,37.47-1.52C978.77,63.47,986.74,72,992,82q26.1,49.12,50.63,99.06c8,16.43,14.21,33.77,21.23,50.7l-2.71,3.05c-11.67-2.53-23.37-5-35-7.63-13.3-3-26.56-6.23-39.84-9.36-5.66-1.33-6.85.86-5.6,6.21,7.26,31.13,14.51,62.26,21.25,93.51,1.27,5.89.18,12.28.18,19.09-13.6-52.9-27-105.07-40.43-157.24-1.56-6.08-2.38-12.55-5.09-18.08-1.85-3.79-6.38-6.28-10-9.66l7.56-1.74c-5.54-28-16.1-54.2-29.68-79.22-.28-.51-3.19.41-5.09.7l22.68,81-3.31.91c-3.49-12.59-6.88-25.21-10.48-37.77-3.27-11.41-6.31-22.92-10.37-34-1.86-5.11-5.93-9.41-9-14.08Zm29.64,16.18c5.32,15.23,10.69,30,15.6,44.84,3.27,9.9,5.95,19.92,15.23,26.33,8.78,6.07,17.38,12.38,26.07,18.58l2.35-2.76a53.43,53.43,0,0,0-2.1-5.46c-9.68-18.92-20.83-37.25-28.65-56.9C961.5,94.58,955.3,84.63,938.46,83.65ZM767.59,386.45q61.37,0,122.74,0c13.05,0,14.05-1.52,10.29-14.09-.5-1.67-1.21-3.29-1.66-5-3.65-13.73-5.83-15.49-20.11-15.48-75.48.08-151,.37-226.44.07-9.82,0-14.21,4-16.13,12.61-.61,2.73-1.35,5.44-2.1,8.13-3.59,12.83-2.95,13.85,10.67,13.88,40.91.09,81.83,0,122.74,0ZM477.36,221c.64-.09,1.42,0,1.89-.3,32.32-22.24,64.67-44.45,96.83-66.91a21.45,21.45,0,0,0,7.62-9.22c6.17-16.38,11.64-33,17.49-49.51,2.16-6.1,4.7-12.07,7.34-18.82-9.24-2.23-17-4.27-24.85-6C564.41,66,551,72.33,542,90.77c-15.24,31.48-31.94,62.24-47.68,93.48-6.07,12.05-11.18,24.59-16.73,36.91Zm382.45,75.37c-62.7.11-125.4.59-188.1.12-11.93-.09-17.74,3-20.17,15.13-2.78,13.9-3.16,14.7,11.54,14.66q106.2-.27,212.4-.79c3.45,0,6.9-.46,10.28-.7C885.86,301.05,881.44,296.3,859.81,296.34Zm-189-50.07c-11,19.6-7.66,26,13.91,25.88q87.3-.62,174.6-1.53c3.94,0,7.87-.9,11.83-1.38-3.66-23.06-3.66-23.09-25.07-23.11q-37.57,0-75.14,0-50.22.13-100.45.39ZM477.62,221.16,467.1,237.92l86.36-20.22c-8.33,42-23,80.91-22,122.74l45.92-173.79-2.74-2.35-96.42,62.85-.87-6.17Zm257-135.86c-7.89-.16-12.11,2.2-14.75,9.8-11.15,32.16-22.93,64.11-34,96.29-1.08,3.13,1.1,7.37,1.76,11.1l3-.32q2.72-6.21,5.44-12.41c12.05-27.63,24.22-55.22,36.08-82.94,3.27-7.65,7.73-11.25,16.72-10.77,14.76.78,29.62-.45,44.4.09,7.74.28,12.62-2.34,16.72-10.67C783.95,85.48,759.28,85.78,734.64,85.3ZM908.78,67.51c-42.25-1.24-84.45-3.4-126.66-3.56-50-.19-99.95,1.3-149.92,2.19-5.17.09-10.31,1.1-14.33,1.56.57,3.64,1.94,6.57,1.24,8.86-5,16.32-10.64,32.44-15.65,48.76-3.27,10.68-5.82,21.58-8.69,32.39l2.78.72c1-3.63,1.85-7.3,3-10.89,7.37-23.3,14.54-46.67,22.5-69.76,1-3,6.05-6.3,9.49-6.62,14.7-1.38,29.5-2.21,44.27-2.32,56.3-.43,112.61-.47,168.91-.74,21.07-.1,42.14-.44,63.22-.68ZM587.19,189.24l-57.92,285.9,3.36.67,57.54-286Zm152,300.36c15.14,0,30.27-.05,45.41,0,51.78.22,103.55.55,155.33.6,4,0,8.09-1.79,14.89-3.39-38.43,2.19-73.53,1.47-108.58,1.68-35.57.22-71.14,0-106.71,0Zm237-160.28L951.37,203l-2.78.53,24.69,126.59ZM802,58.09H917.16q0-1.28,0-2.56H802Q802,56.81,802,58.09ZM631.52,53.89l65.66.94c-.39.56-2,.32-3.06.35-6.62.18-13.24.46-19.86.46-21.39,0-42.8-.77-64.15.16-12.06.53-24,3.82-36,5.87l.47,1L775.54,54.8l0-1.38h-64M988.47,397.19,978.58,343l-2.62.46,9.86,54ZM795.65,61.91h51.42v-1H795.64ZM513.57,424.68l-4,27.54,2.87.4c-.61-9.44,8.22-17.6,4.08-27.53Zm485.09,31.1-7-45.14-3.22.57,9.48,45.18ZM532.72,722.58H478.15c4.16,5.11,6.57,10.83,9.32,11,14.9.9,29.87.43,45.25.43Zm-54.57,0c4.16,5.11,6.57,10.83,9.32,11,14.9.9,29.87.43,45.25.43V722.58Z" transform="translate(-312.28 -53.42)"/></svg>