<svg id="Layer_1" data-name="Layer 1" xmlns="http://www.w3.org/2000/svg" viewBox="0 0 1009.72 796.33"><defs><style>.cls-1{fill:#fff;}</style></defs><title>lambo_cool_angle</title><path class="cls-1" d="M882.67,825.23c17.72,0,34.74.26,51.74-.1,10.13-.21,17,3.52,20,13.4,2.09,6.86,6.5,10.48,13.8,10.58,8.9.12,17.81.84,26.68.5,11.33-.43,22.62-1.67,34.24-2.58-.36-4.06,0-6.74-.88-8.89-4.23-10.12-.13-13.46,9.76-13.24,12.29.26,24.65-.72,36.87.27,13.84,1.12,27.68,6.16,41.29,5.41,46.55-2.57,93-7.09,139.5-10.53,18.34-1.36,36.13-4,51.68-14.8,7.87-5.5,16.46-9.12,14.33-22.47-4.13-25.94-5.86-52.26-9-78.37-6.36-52.92-20.94-103.74-40.35-153.21-12-30.6-27.48-59.82-34.41-92.39-2.2-10.33-7.61-19.47-19.2-23.34-3.49-1.17-6.66-5.05-8.74-8.45-19.07-31.13-38.82-61.9-56.45-93.84-15.75-28.52-31.47-57.49-42.77-87.91-10.41-28-23.33-52-49.69-67.4-12.35-7.21-21.56-17.16-26.68-31.07-4.74-12.89-10.94-25.25-16.49-37.85l-2.74.62c.63,3.27.61,6.85,2,9.78,17.53,37.45,35.13,74.88,53.15,112.1,1.56,3.23,6,6.67,9.46,7.11,16.29,2.06,24.19,11.72,27.33,26.9,7.1,34.35,22,67.08,21.16,105.8,9.62-21.11-2.7-38-3.85-57.23,23.62,50.61,43.95,101.09,54.76,154.08,15.11,74,25.94,148.86,38.38,223.39,1.59,9.51-1.35,11.54-11.44,10.26-14-1.77-27.93-3.56-41.94-4.83-41.64-3.76-83.3-7.27-124.68-10.85-2.73-16.13-5.48-32.64-8.32-49.14-6-34.75-11.86-69.53-18.05-104.24-4.58-25.67-9.59-51.27-14.41-76.89l-7-45.14-3.22.57,9.48,45.18c3.61,22.76,7,45.56,10.89,68.27,6.73,39.28,13.83,78.51,20.65,117.77,2.49,14.34,4.63,28.75,6.73,41.88-7.09,3.35-12.52,6.54-18.36,8.55-8.43,2.89-17.14,7-25.74,7q-227.48,1-455,1a104.51,104.51,0,0,1-10.87-1.07l60.51-208.46H689.87v-2.69H586.68c22-69.74,43.35-137.55,64.95-205.26,4.26-13.36,6.81-27.84,19.16-37.11-11,19.6-7.65,26,13.92,25.88q87.3-.62,174.6-1.53c3.94,0,7.87-.9,11.83-1.38-3.66-23.06-3.66-23.09-25.07-23.11q-37.57,0-75.14,0-50.22.13-100.45.39c5.81-2.18,11.61-6.21,17.44-6.25,60.53-.46,121.06-.29,182.14-.29l-.91-11.48,1.29-.31,6.19,16,3-7.38L943,446.55c9.16-8.09,13.59-16.76,10.58-28.37Q941,369.47,928.5,320.72,914.74,267,901.12,213.15a52.51,52.51,0,0,1-.75-6.64l-4.66,5.17L896.78,200c-18.51,2.13-35.73,5.55-53,5.82-49.72.8-99.46.32-149.2.34-.7,0-1.41,0-2.11-.08l-55.82-4.66-73.5,258.47-21.7,1,.16,2.35h20.24a9.17,9.17,0,0,1,.23,2.55q-27.66,107.55-55.39,215.09c-1.62,6.28-5.36,8.61-13.37,6l25.22-140-2.81-.47c-7.87,44.94-15.62,89.9-23.88,134.76-.52,2.82-4.83,6.8-7.67,7.06-35.76,3.33-71.61,5.74-107.36,9.11-20.87,2-41.62,5.25-64.53,8.21,5.73,12.67,10.78,23.39,15.44,34.29C332.07,750,339.12,756,350.4,757.66Q421,768.14,491.46,779.32" transform="translate(-312.28 -53.42)"/><path d="M813.32,816.92c-18.57,0-31.7,11.59-32,13.59-1.07,8,.84,17-11.19,17.9-7.42.53-14.85,1.11-22.28,1.23-12.06.2-24.12.05-38.44.05-1.83-3-4.27-9.83-9.09-13.79-4.46-3.66-11.41-5.42-17.41-5.83-10.94-.76-22,.75-33,0-7.18-.47-14.16-3.48-21.32-4.83-16.16-3.06-32.48-5.39-48.53-8.94-4.22-.93-8.55-4.54-11.36-8.08-5.86-7.39-10.74-15.55-17.35-25.37m-59.93-3.57Q421,768.23,350.4,757.66c-11.27-1.67-18.32-7.66-22.68-17.85-4.66-10.89-9.71-21.62-15.44-34.29,22.91-3,43.66-6.24,64.53-8.21,35.76-3.37,71.6-5.78,107.36-9.11,2.84-.26,7.15-4.24,7.67-7.06,8.26-44.87,16-89.82,23.88-134.76l2.81.47-25.22,140c8,2.62,11.75.29,13.37-6q27.7-107.54,55.39-215.09a9.17,9.17,0,0,0-.23-2.55H541.61l-.16-2.35,21.7-1,73.5-258.47,55.82,4.66c.7.06,1.41.08,2.11.08,49.73,0,99.48.45,149.2-.34,17.27-.28,34.49-3.7,53-5.82l-1.07,11.67,4.66-5.17a52.51,52.51,0,0,0,.75,6.64q13.63,53.8,27.38,107.56,12.48,48.75,25.08,97.46c3,11.61-1.42,20.28-10.58,28.37L879.65,236.87l-3,7.38-6.19-16-1.29.31.91,11.48c-61.08,0-121.61-.18-182.14.29-5.83,0-11.63,4.07-17.44,6.25l.32-.29c-12.37,9.27-14.92,23.75-19.18,37.11C630,351.09,608.72,418.9,586.68,488.64H689.86v2.69H586.79L526.28,699.79a104.51,104.51,0,0,0,10.87,1.07q227.48-.27,455-1c8.6,0,17.32-4.14,25.74-7,5.84-2,11.28-5.19,18.36-8.55-2.1-13.13-4.24-27.53-6.73-41.88-6.82-39.27-13.92-78.49-20.65-117.77-3.89-22.71-7.27-45.51-10.89-68.27l.72-.62c4.82,25.63,9.83,51.22,14.41,76.89,6.19,34.72,12.07,69.49,18.05,104.24,2.84,16.5,5.59,33,8.32,49.14,41.38,3.58,83,7.09,124.68,10.85,14,1.27,28,3.06,41.94,4.83,10.08,1.28,13-.75,11.44-10.26-12.44-74.53-23.27-149.4-38.38-223.39-10.82-53-31.14-103.47-54.76-154.08,1.15,19.24,13.47,36.12,3.85,57.23.82-38.72-14.06-71.46-21.16-105.8-3.14-15.18-11-24.84-27.33-26.9-3.47-.44-7.9-3.88-9.46-7.11-18-37.22-35.62-74.64-53.15-112.1-1.37-2.93-1.35-6.5-2-9.78l2.74-.62c5.55,12.6,11.75,25,16.49,37.85,5.12,13.91,14.33,23.86,26.68,31.07,26.36,15.39,39.29,39.4,49.69,67.4,11.3,30.42,27,59.39,42.77,87.91,17.64,31.93,37.39,62.71,56.45,93.84,2.08,3.4,5.25,7.28,8.74,8.45,11.59,3.87,17,13,19.2,23.34,6.93,32.57,22.41,61.8,34.41,92.39,19.41,49.47,34,100.29,40.35,153.21,3.14,26.11,4.86,52.43,9,78.37,2.13,13.36-6.45,17-14.33,22.47-15.55,10.85-33.33,13.45-51.68,14.8-46.51,3.44-92.95,8-139.5,10.53-13.61.75-27.45-4.29-41.29-5.41-12.21-1-24.58,0-36.87-.27-9.9-.21-14,3.13-9.76,13.24.9,2.15.53,4.82.88,8.89-11.62.91-22.92,2.15-34.24,2.58-8.87.34-17.78-.38-26.68-.5-7.3-.1-11.71-3.72-13.8-10.58-3-9.88-9.87-13.62-20-13.4-17,.36-34,.1-51.74.1M549.13,706.93v1.77H979.47q0-.88,0-1.77Zm204.18,56v-3.64c-65.19,0-130.39-.11-195.58.19-5.71,0-11.45,2.58-17.11,4.2-7.91,2.27-15.85,7-23.61,6.74-21.7-.86-43.36-3.43-65-6-33.44-4-66.82-8.51-100.22-12.8a53.3,53.3,0,0,0,14.89,4.62c42.44,5.68,84.84,11.63,127.38,16.44,14.28,1.62,29.25,5.81,43.18-2.94,10.19-6.4,21.62-7,33.41-6.93C631.55,763.07,692.43,762.93,753.31,762.93ZM477,717.06c2,9.27,3.7,18,5.83,26.61.27,1.09,2.64,2.34,4,2.35,17,.16,34,.1,51.85.1l-4.76-29.07Zm570.38,26.86.93.08,5.26-26.81H995.61l-4,28.33L994,746l3.59-15.39,1.93,4.74h47.83ZM1011,772.24q0,.74,0,1.48a36.36,36.36,0,0,0,5.7.31c30.74-3,61.54-5.52,92.17-9.38,24-3,47.72-7.63,71.51-11.87,3.54-.63,6.76-3.1,7.38-3.39ZM591.09,444.63l2.85,1.35,53-169.32-2.31-.73ZM980,762.41v-1.78H773.1v1.78Zm206.68-43.67.06-4.21h-56.63L1123,741.27a16.9,16.9,0,0,0,5.56-10.2c1.76-10.38,6.62-14.11,17.89-12.71C1159.67,720,1173.27,718.74,1186.72,718.74Zm-842.88-3.66c13.83,5.6,51.83,4.89,56.44,0Zm67,1.18,0,1.89H461.1v-1.89Z" transform="translate(-312.28 -53.42)"/><path d="M1026.08,424.64c29,3.59,56.91,7.05,84.77,10.48,10.45,1.29,21,2,31.34,3.95,5.35,1,13.61,3.16,14.84,6.76,8.84,25.82,16.3,52.13,15.21,80.14l-15.4-62.7-.25.09,23.5,133.35c-13.5-1.84-24.44-3.58-35.44-4.77-27.59-3-55.22-5.53-82.77-8.76-3.13-.37-8-3.57-8.48-6.16-9.55-48.44-18.58-97-27.65-145.53C1025.45,429.84,1025.89,428.06,1026.08,424.64Z" transform="translate(-312.28 -53.42)"/><path d="M353.25,595.84c10.36-48.19,20.72-95.21,30.4-142.36,1.93-9.42,6.52-12,15.43-13,36-3.95,71.83-8.73,109.2-13.39-2.53,13.85-4.92,27.75-7.61,41.59-6.88,35.35-14,70.66-20.77,106-1,5-2,8-8.08,8.68-37,3.87-74,8.23-110.95,12.39C359.19,596,357.49,595.84,353.25,595.84Zm24-100.66-.11,2.29,116.11-12.91-.27-2.41ZM484.8,521.77l.56-2.23L370.19,531.93l.27,2.46Zm-2.55,19.89L482,539.3l-114.73,13,.27,2.26Zm6.1-38.5L488,501,374.9,513.46l.24,2.06Zm7.33-36.2-.22-1.91L382,477.86l.2,1.75ZM363.77,572l.7,2.24L478.3,561.2l-.23-2ZM497.58,450l-.13-1.85L387.8,460.63l.22,1.79Z" transform="translate(-312.28 -53.42)"/><path d="M921.33,454.21c-9.23.45-16.53,1.08-23.83,1.11q-132.25.54-264.5.92c-2.12,0-4.23,0-6.35,0-13.51-.5-15.2-2.83-11.67-16.05,6.48-24.35,6.48-24.34,32-24.35l245.46-.09c19.45,0,20.56.77,25.17,19.2C919,440.6,919.85,446.45,921.33,454.21Z" transform="translate(-312.28 -53.42)"/><path d="M908.83,67.47c6.53-.81,13-2,19.6-2.36,12.48-.76,25-1.39,37.47-1.52C978.77,63.47,986.74,72,992,82q26.1,49.12,50.63,99.06c8,16.43,14.21,33.77,21.23,50.7l-2.71,3.05c-11.67-2.53-23.37-5-35-7.63-13.3-3-26.56-6.23-39.84-9.36-5.66-1.33-6.85.86-5.6,6.21,7.26,31.13,14.51,62.26,21.25,93.51,1.27,5.89.18,12.28.18,19.09-13.6-52.9-27-105.07-40.43-157.24-1.56-6.08-2.38-12.55-5.09-18.08-1.85-3.79-6.38-6.28-10-9.66l7.56-1.74c-5.54-28-16.1-54.2-29.68-79.22-.28-.51-3.19.41-5.09.7l22.68,81-3.31.91c-3.49-12.59-6.88-25.21-10.48-37.77-3.27-11.41-6.31-22.92-10.37-34-1.86-5.11-5.93-9.41-9-14.08Zm29.64,16.18c5.32,15.23,10.69,30,15.6,44.84,3.27,9.9,5.95,19.92,15.23,26.33,8.78,6.07,17.38,12.38,26.07,18.58l2.35-2.76a53.43,53.43,0,0,0-2.1-5.46c-9.68-18.92-20.83-37.25-28.65-56.9C961.5,94.58,955.3,84.63,938.46,83.65Z" transform="translate(-312.28 -53.42)"/><path d="M767.59,386.6c-40.91,0-81.83.06-122.74,0-13.62,0-14.25-1-10.67-13.88.75-2.7,1.49-5.4,2.1-8.13,1.93-8.65,6.31-12.65,16.13-12.61,75.48.3,151,0,226.44-.07,14.28,0,16.45,1.74,20.11,15.48.45,1.69,1.16,3.3,1.66,5,3.76,12.58,2.76,14.07-10.29,14.09q-61.37.1-122.74,0Z" transform="translate(-312.28 -53.42)"/><path d="M477.62,221.16c5.55-12.32,10.66-24.86,16.73-36.91,15.74-31.24,32.44-62,47.68-93.48C551,72.33,564.41,66,583.69,70.24c7.84,1.71,15.61,3.74,24.85,6C605.89,83,603.35,88.93,601.19,95c-5.85,16.5-11.32,33.14-17.49,49.51a21.45,21.45,0,0,1-7.62,9.22c-32.16,22.47-64.51,44.67-96.83,66.91-.47.33-1.25.21-1.89.3Z" transform="translate(-312.28 -53.42)"/><path d="M885.76,324.76c-3.38.24-6.83.69-10.28.7q-106.2.46-212.4.79c-14.7,0-14.31-.76-11.54-14.66,2.43-12.16,8.24-15.22,20.17-15.13,62.69.47,125.4,0,188.1-.12C881.44,296.3,885.86,301.05,885.76,324.76Z" transform="translate(-312.28 -53.42)"/><path d="M670.49,246.56q50.22-.2,100.45-.39,37.57-.1,75.14,0c21.41,0,21.41,0,25.07,23.11-4,.48-7.89,1.34-11.83,1.38q-87.3.88-174.6,1.53c-21.57.15-24.95-6.28-13.91-25.88Z" transform="translate(-312.28 -53.42)"/><path d="M477.36,221l.87,6.17,96.42-62.85,2.74,2.35L531.47,340.44c-1-41.84,13.67-80.76,22-122.74L467.1,237.92l10.52-16.75Z" transform="translate(-312.28 -53.42)"/><path d="M810,85.48c-4.1,8.32-9,10.95-16.72,10.67-14.78-.54-29.64.69-44.4-.09-9-.47-13.44,3.13-16.72,10.77-11.86,27.71-24,55.3-36.08,82.94q-2.71,6.21-5.44,12.41l-3,.32c-.67-3.73-2.84-8-1.76-11.1,11.08-32.19,22.85-64.13,34-96.29,2.64-7.61,6.87-10,14.75-9.8C759.28,85.78,783.95,85.48,810,85.48Z" transform="translate(-312.28 -53.42)"/><path d="M908.93,67.41c-21.07.23-42.14.57-63.22.68-56.3.27-112.61.31-168.91.74-14.77.11-29.57.94-44.27,2.32-3.44.32-8.44,3.59-9.49,6.62-8,23.1-15.14,46.46-22.5,69.76-1.13,3.59-2,7.26-3,10.89l-2.78-.72c2.87-10.8,5.42-21.71,8.69-32.39,5-16.32,10.64-32.44,15.65-48.76.7-2.29-.67-5.22-1.24-8.86,4-.45,9.16-1.46,14.33-1.56,50-.9,99.95-2.38,149.92-2.19,42.21.16,84.41,2.32,126.66,3.56Z" transform="translate(-312.28 -53.42)"/><path d="M590.16,189.79l-57.54,286-3.36-.67,57.92-285.9Z" transform="translate(-312.28 -53.42)"/><path d="M739.49,488.55c35.57,0,71.14.17,106.71,0,35.06-.21,70.15.51,108.58-1.68-6.8,1.61-10.84,3.4-14.89,3.39-51.78-.05-103.55-.38-155.33-.6-15.14-.06-30.27,0-45.41,0Z" transform="translate(-312.28 -53.42)"/><path d="M973.28,330.08,948.59,203.49l2.78-.53,24.79,126.37Z" transform="translate(-312.28 -53.42)"/><path d="M802,55.53H917.16q0,1.28,0,2.56H802Q802,56.81,802,55.53Z" transform="translate(-312.28 -53.42)"/><path d="M631.52,53.89l65.66.94c-.39.56-2,.32-3.06.35-6.62.18-13.24.46-19.86.46-21.39,0-42.8-.77-64.15.16-12.06.53-24,3.82-36,5.87l.47,1L775.54,54.8l0-1.38h-64" transform="translate(-312.28 -53.42)"/><path d="M985.83,397.45l-9.86-54,2.62-.46,9.89,54.17Z" transform="translate(-312.28 -53.42)"/><path d="M795.64,60.92h51.42v1H795.65Z" transform="translate(-312.28 -53.42)"/><path d="M516.51,425.09c4.15,9.93-4.69,18.08-4.08,27.53l-2.87-.4,4-27.54Z" transform="translate(-312.28 -53.42)"/><path d="M997.94,456.4l-9.48-45.18,3.22-.57,7,45.14Z" transform="translate(-312.28 -53.42)"/><path class="cls-1" d="M549.13,706.93H979.47q0,.88,0,1.77H549.13Z" transform="translate(-312.28 -53.42)"/><path class="cls-1" d="M753.31,762.93c-60.88,0-121.76.14-182.63-.12-11.78,0-23.21.53-33.41,6.93-13.93,8.75-28.9,4.56-43.18,2.94-42.54-4.81-84.94-10.76-127.38-16.44a53.3,53.3,0,0,1-14.89-4.62c33.4,4.3,66.78,8.83,100.22,12.8,21.6,2.57,43.26,5.13,65,6,7.77.31,15.7-4.47,23.61-6.74,5.66-1.62,11.4-4.18,17.11-4.2,65.19-.3,130.39-.19,195.58-.19Z" transform="translate(-312.28 -53.42)"/><path class="cls-1" d="M477,717.06h57l4.76,29.07c-17.85,0-34.85.06-51.85-.1-1.41,0-3.77-1.27-4-2.35C480.69,735.05,479,726.34,477,717.06Zm55.73,5.51H478.15c4.16,5.11,6.57,10.83,9.32,11,14.9.9,29.87.43,45.25.43Z" transform="translate(-312.28 -53.42)"/><path class="cls-1" d="M1047.37,743.93v-8.6H999.54l-1.93-4.74L994,746l-2.45-.44,4-28.33h57.95L1048.3,744Z" transform="translate(-312.28 -53.42)"/><path class="cls-1" d="M1011,772.24l176.75-22.86c-.62.3-3.84,2.76-7.38,3.39-23.79,4.24-47.55,8.85-71.51,11.87-30.63,3.86-61.43,6.36-92.17,9.38a36.36,36.36,0,0,1-5.7-.31Q1011,773,1011,772.24Z" transform="translate(-312.28 -53.42)"/><path class="cls-1" d="M591.09,444.63l53.51-168.7,2.31.73L593.94,446Z" transform="translate(-312.28 -53.42)"/><path class="cls-1" d="M980,762.41H773.1v-1.78H980Z" transform="translate(-312.28 -53.42)"/><path class="cls-1" d="M1186.72,718.74c-13.45,0-27.05,1.26-40.3-.38-11.27-1.4-16.13,2.33-17.89,12.71a16.9,16.9,0,0,1-5.56,10.2l7.17-26.74h56.63Z" transform="translate(-312.28 -53.42)"/><path class="cls-1" d="M343.84,715.09h56.44C395.67,720,357.67,720.69,343.84,715.09Z" transform="translate(-312.28 -53.42)"/><path class="cls-1" d="M410.83,716.27h50.28v1.89H410.78Z" transform="translate(-312.28 -53.42)"/><path class="cls-1" d="M377.24,495.18l115.73-13,.27,2.41L377.13,497.46Z" transform="translate(-312.28 -53.42)"/><path class="cls-1" d="M484.8,521.77,370.46,534.39l-.27-2.46,115.16-12.39Z" transform="translate(-312.28 -53.42)"/><path class="cls-1" d="M482.25,541.65,367.51,554.57l-.27-2.26L482,539.3Z" transform="translate(-312.28 -53.42)"/><path class="cls-1" d="M488.35,503.15,375.14,515.52l-.24-2.06L488,501Z" transform="translate(-312.28 -53.42)"/><path class="cls-1" d="M495.68,466.95,382.16,479.61l-.2-1.75L495.46,465Z" transform="translate(-312.28 -53.42)"/><path class="cls-1" d="M363.77,572l114.3-12.81.23,2L364.47,574.29Z" transform="translate(-312.28 -53.42)"/><path class="cls-1" d="M497.58,450,388,462.42l-.22-1.79,109.65-12.48Z" transform="translate(-312.28 -53.42)"/><path class="cls-1" d="M938.46,83.65c16.83,1,23,10.93,28.49,24.64,7.82,19.65,19,38,28.65,56.9a53.43,53.43,0,0,1,2.1,5.46l-2.35,2.76c-8.68-6.2-17.29-12.51-26.07-18.58-9.28-6.42-12-16.43-15.23-26.33C949.16,113.61,943.79,98.88,938.46,83.65Z" transform="translate(-312.28 -53.42)"/><path d="M532.72,722.58V734c-15.37,0-30.35.47-45.25-.43-2.75-.17-5.16-5.88-9.32-11Z" transform="translate(-312.28 -53.42)"/></svg>