<svg width="1440" height="851" viewBox="0 0 1440 851" version="1.1" xmlns="http://www.w3.org/2000/svg" xmlns:xlink="http://www.w3.org/1999/xlink" xmlns:figma="http://www.figma.com/figma/ns">
<title>parallax_upwards_point_02</title>
<desc>Created using Figma</desc>
<g id="Canvas" transform="translate(-2124 -897)" figma:type="canvas">
<g id="parallax_upwards_point_02" figma:type="frame">
<g id="Gradient" figma:type="frame">
<g id="Vector" figma:type="vector">
<use xlink:href="#path0_fill" transform="translate(2124 897.5)" fill="#97277A"/>
</g>
<g id="Vector" figma:type="vector">
<use xlink:href="#path1_fill" transform="translate(2124 996.5)" fill="#A92976"/>
</g>
<g id="Vector" figma:type="vector">
<use xlink:href="#path2_fill" transform="translate(2124 1095.5)" fill="#BC2C71"/>
</g>
<g id="Vector" figma:type="vector">
<use xlink:href="#path3_fill" transform="translate(2124 1195)" fill="#D02D6C"/>
</g>
</g>
<g id="Stroke" figma:type="frame">
<g id="Vector" figma:type="vector">
<use xlink:href="#path4_fill" transform="translate(2124 897)" fill="#261B9A"/>
</g>
<g id="Vector" figma:type="vector">
<use xlink:href="#path5_fill" transform="translate(2124 897)" fill="#A6A4FF"/>
</g>
</g>
</g>
</g>
<defs>
<path id="path0_fill" d="M 0 449.5L 719 0L 1439 450L 1439 550L 720 100L 0 549.5L 0 449.5Z"/>
<path id="path1_fill" d="M 0 450.5L 720.5 0L 1439.5 450L 1439.5 550L 721.5 100L 0 550.5L 0 450.5Z"/>
<path id="path2_fill" d="M 0 451L 721 0L 1439 450L 1439 550L 722 100L 0 551L 0 451Z"/>
<path id="path3_fill" d="M 0 451L 722 0L 1439.5 450.5L 1439.5 551.5L 723.5 101.5L 0.5 552.5L 0 451Z"/>
<path id="path4_fill" d="M 719 8.26L 1432 454.39L 1433 836.39L 726.72 394.07L 723 391.75L 719.29 394.07L 7 838.38L 7 453.88L 719 8.26ZM 719 0L 0 450L 0 851L 723 400L 1440 849L 1439 450.5L 719 0Z"/>
<path id="path5_fill" d="M 719 7.08L 1434 453.33L 1434 839.15L 726.19 394.92L 723.01 392.92L 719.82 394.92L 6 840.19L 6 453.32L 719 7.08ZM 719 0L 0 450L 0 851L 723 400L 1440 850L 1440 450L 719 0Z"/>
</defs>
</svg>
