<svg xmlns="http://www.w3.org/2000/svg" xmlns:xlink="http://www.w3.org/1999/xlink" viewBox="0 0 1908.5 851"><defs><style>.cls-1{fill:#97277a;}.cls-2{fill:#a92976;}.cls-3{fill:#bc2c71;}.cls-4{fill:#d02d6c;}.cls-5{fill:#261b9a;}.cls-6{fill:#a6a4ff;}</style></defs><title>parallax_upwards_point_02</title><g id="Gradient"><polygon class="cls-1" points="0 450 719 0.5 1439 450.5 1439 550.5 720 100.5 0 550 0 450"/><polygon class="cls-2" points="0 550 720.5 99.5 1439.5 549.5 1439.5 649.5 721.5 199.5 0 650 0 550"/><polygon class="cls-3" points="0 649.5 721 198.5 1439 648.5 1439 748.5 722 298.5 0 749.5 0 649.5"/><polygon class="cls-4" points="0 749 722 298 1439.5 748.5 1439.5 849.5 723.5 399.5 0.5 850.5 0 749"/></g><g id="Stroke"><path class="cls-5" d="M719,8.26l713,446.13,1,382L726.72,394.07,723,391.75l-3.71,2.32L7,838.38V453.88L719,8.26M719,0,0,450V851L723,400l717,449-1-398.5L719,0Z"/><path class="cls-6" d="M719,7.08l715,446.25V839.15L726.19,394.92l-3.18-2-3.19,2L6,840.19V453.32L719,7.08M719,0,0,450V851L723,400l717,450V450L719,0Z"/></g><g id="Pallete"><image width="1280" height="1920" transform="translate(1521) scale(0.3)" xlink:href="gradient_01.jpg"/></g></svg>